# xmcd CD database file
#
# Track frame offsets:
#	150
#	2106
#	16160
#	28869
#	36075
#	51512
#	68563
#	75804
#	86369
#	104069
#	119745
#	127614
#	142542
#	164366
#	178910
#	196234
#
# Disc length: 2844 seconds
#
# Revision: 2
# Processed by: cddbd v1.4b41PL1 Copyright (c) Steve Scherf et al.
# Submitted via: Feurio! 1.50.2ß - http://www.feurio.com
#
DISCID=c50b1a10
DTITLE=Holger Biege - Wenn der Abend kommt
DYEAR=1900
DGENRE=
TTITLE0=Einspiel
TTITLE1=Als der Regen niederging
TTITLE2=Bleib doch
TTITLE3=Wo bist du Jessy
TTITLE4=Wie Dynamit
TTITLE5=Will alles wagen
TTITLE6=Vater, Mutter, Kind
TTITLE7=An jenem Morgen
TTITLE8=Dein Gesicht
TTITLE9=Wenn der Abend kommt
TTITLE10=Nachspiel
TTITLE11=Sagte mal ein Dichter
TTITLE12=John Lennon - Give Peace A Chance
TTITLE13=John Lennon and Jimi Hendrix -  Day Tripper [live in '67]
TTITLE14=karat - und ich liebe dich
TTITLE15=Rolling Stones - Satisfaction~1
EXTD=
EXTT0=
EXTT1=
EXTT2=
EXTT3=
EXTT4=
EXTT5=
EXTT6=
EXTT7=
EXTT8=
EXTT9=
EXTT10=
EXTT11=
EXTT12=
EXTT13=
EXTT14=
EXTT15=
PLAYORDER=
